<svg width="99" height="46" viewBox="0 0 99 46" fill="none" xmlns="http://www.w3.org/2000/svg">
<path d="M37.807 17.91C37.807 18.783 37.5954 19.5419 37.1723 20.1867C36.7492 20.8314 36.1313 21.3284 35.3187 21.6776C34.5128 22.0269 33.5322 22.2015 32.3771 22.2015C31.8667 22.2015 31.3663 22.1679 30.8761 22.1007C30.3925 22.0336 29.9257 21.9362 29.4758 21.8086C29.0325 21.6743 28.6094 21.5097 28.2064 21.315V18.4137C28.9049 18.7226 29.6302 19.0013 30.3824 19.2498C31.1346 19.4983 31.8801 19.6225 32.6189 19.6225C33.1293 19.6225 33.539 19.5554 33.8479 19.4211C34.1635 19.2867 34.3919 19.102 34.5329 18.867C34.674 18.6319 34.7445 18.3633 34.7445 18.0611C34.7445 17.6917 34.6202 17.376 34.3717 17.1141C34.1233 16.8522 33.7807 16.607 33.3442 16.3787C32.9144 16.1504 32.4275 15.9052 31.8835 15.6433C31.5409 15.4821 31.1682 15.2873 30.7652 15.059C30.3623 14.8239 29.9795 14.5385 29.6168 14.2027C29.2541 13.8669 28.9553 13.4606 28.7202 12.9838C28.4919 12.5002 28.3777 11.9226 28.3777 11.251C28.3777 10.3712 28.5792 9.61904 28.9821 8.99445C29.3851 8.36986 29.9593 7.89302 30.7048 7.56394C31.457 7.22814 32.3435 7.06024 33.3643 7.06024C34.13 7.06024 34.8587 7.1509 35.5504 7.33224C36.2489 7.50685 36.9776 7.76206 37.7365 8.09786L36.7291 10.5257C36.0507 10.2503 35.4429 10.0388 34.9057 9.89104C34.3684 9.73657 33.821 9.65933 33.2636 9.65933C32.8741 9.65933 32.5416 9.72314 32.2663 9.85074C31.9909 9.97163 31.7827 10.1462 31.6417 10.3746C31.5007 10.5962 31.4301 10.8548 31.4301 11.1503C31.4301 11.4995 31.5309 11.795 31.7324 12.0368C31.9405 12.2719 32.2495 12.5002 32.6592 12.7218C33.0756 12.9435 33.5927 13.202 34.2106 13.4975C34.9628 13.8535 35.6041 14.2262 36.1347 14.6157C36.672 14.9986 37.085 15.4519 37.3738 15.9757C37.6626 16.4929 37.807 17.1376 37.807 17.91ZM46.7124 22L43.1664 10.4451H43.0757C43.0891 10.7205 43.1093 11.1369 43.1361 11.6943C43.1697 12.245 43.1999 12.8326 43.2268 13.4572C43.2537 14.0818 43.2671 14.646 43.2671 15.1497V22H40.4766V7.27179H44.7278L48.2134 18.5345H48.2739L51.971 7.27179H56.2223V22H53.3109V15.0288C53.3109 14.5654 53.3176 14.0315 53.331 13.427C53.3512 12.8226 53.3747 12.2484 53.4016 11.7044C53.4284 11.1536 53.4486 10.7406 53.462 10.4653H53.3713L49.5734 22H46.7124ZM68.9558 22L67.888 18.4942H62.5185L61.4507 22H58.086L63.2842 7.21135H67.1022L72.3206 22H68.9558ZM67.1425 15.875L66.0747 12.4498C66.0075 12.2215 65.9168 11.9293 65.8027 11.5734C65.6952 11.2107 65.5844 10.8447 65.4702 10.4753C65.3628 10.0992 65.2755 9.77351 65.2083 9.49815C65.1411 9.77351 65.0471 10.116 64.9262 10.5257C64.8121 10.9287 64.7012 11.3115 64.5938 11.6741C64.4863 12.0368 64.4091 12.2954 64.3621 12.4498L63.3043 15.875H67.1425ZM78.4758 7.27179C79.8123 7.27179 80.9137 7.43298 81.7801 7.75535C82.6531 8.07771 83.3012 8.56462 83.7243 9.21608C84.1474 9.86753 84.359 10.6902 84.359 11.6842C84.359 12.3558 84.2314 12.9435 83.9762 13.4472C83.721 13.9509 83.3852 14.3773 82.9688 14.7266C82.5524 15.0758 82.1024 15.3612 81.6189 15.5829L85.9507 22H82.4852L78.9694 16.3485H77.3072V22H74.1842V7.27179H78.4758ZM78.2541 9.83059H77.3072V13.8098H78.3146C79.3489 13.8098 80.0876 13.6386 80.5309 13.2961C80.9808 12.9468 81.2058 12.4364 81.2058 11.7648C81.2058 11.0663 80.9641 10.5694 80.4805 10.2738C80.0037 9.97834 79.2615 9.83059 78.2541 9.83059ZM93.4861 22H90.3631V9.87089H86.3637V7.27179H97.4854V9.87089H93.4861V22Z" fill="#0F1D40"/>
<path d="M14.9498 41.8047H10.9807L4.5736 30.6628H4.48294C4.5098 31.1262 4.53331 31.593 4.55346 32.0631C4.5736 32.5332 4.59375 33.0034 4.6139 33.4735C4.63405 33.9369 4.6542 34.4036 4.67434 34.8738V41.8047H1.88384V27.0765H5.82278L12.2198 38.1075H12.2903C12.2769 37.6508 12.2601 37.1975 12.2399 36.7475C12.2198 36.2976 12.1996 35.8476 12.1795 35.3976C12.1661 34.9476 12.1526 34.4977 12.1392 34.0477V27.0765H14.9498V41.8047ZM28.6606 36.1532C28.6606 37.0934 28.533 37.9262 28.2778 38.6515C28.0293 39.3769 27.6632 39.9914 27.1797 40.4951C26.7029 40.9921 26.1253 41.3681 25.447 41.6234C24.7754 41.8786 24.0164 42.0062 23.1702 42.0062C22.3777 42.0062 21.6491 41.8786 20.9842 41.6234C20.326 41.3681 19.7518 40.9921 19.2615 40.4951C18.778 39.9914 18.4019 39.3769 18.1332 38.6515C17.8713 37.9262 17.7403 37.0934 17.7403 36.1532C17.7403 34.904 17.962 33.8462 18.4052 32.9799C18.8485 32.1135 19.4798 31.4553 20.2991 31.0053C21.1185 30.5554 22.0957 30.3304 23.2307 30.3304C24.2851 30.3304 25.2186 30.5554 26.0313 31.0053C26.8506 31.4553 27.492 32.1135 27.9554 32.9799C28.4255 33.8462 28.6606 34.904 28.6606 36.1532ZM20.8734 36.1532C20.8734 36.8919 20.9539 37.5132 21.1151 38.0169C21.2763 38.5206 21.5282 38.9 21.8707 39.1552C22.2132 39.4104 22.6598 39.538 23.2105 39.538C23.7545 39.538 24.1944 39.4104 24.5302 39.1552C24.8727 38.9 25.1212 38.5206 25.2757 38.0169C25.4369 37.5132 25.5175 36.8919 25.5175 36.1532C25.5175 35.4077 25.4369 34.7898 25.2757 34.2995C25.1212 33.8026 24.8727 33.4298 24.5302 33.1813C24.1877 32.9328 23.7411 32.8086 23.1904 32.8086C22.3777 32.8086 21.7867 33.0873 21.4174 33.6447C21.0547 34.2022 20.8734 35.0383 20.8734 36.1532ZM44.4264 30.3304C45.7024 30.3304 46.6662 30.6595 47.3176 31.3176C47.9758 31.9691 48.3049 33.0168 48.3049 34.4607V41.8047H45.2222V35.2264C45.2222 34.4204 45.0846 33.8126 44.8092 33.403C44.5339 32.9933 44.1074 32.7884 43.5298 32.7884C42.7172 32.7884 42.1396 33.0806 41.7971 33.6649C41.4546 34.2425 41.2833 35.0719 41.2833 36.1532V41.8047H38.2107V35.2264C38.2107 34.6891 38.1503 34.2391 38.0294 33.8764C37.9085 33.5138 37.7238 33.2418 37.4753 33.0604C37.2268 32.8791 36.9078 32.7884 36.5183 32.7884C35.9474 32.7884 35.4975 32.9328 35.1684 33.2216C34.846 33.5037 34.6143 33.9235 34.4733 34.4809C34.339 35.0316 34.2718 35.7066 34.2718 36.5058V41.8047H31.1992V30.5419H33.5465L33.9595 31.9825H34.1308C34.3591 31.593 34.6445 31.2773 34.9871 31.0356C35.3363 30.7938 35.7191 30.6158 36.1355 30.5016C36.5519 30.3875 36.975 30.3304 37.4048 30.3304C38.2309 30.3304 38.9293 30.4647 39.5002 30.7333C40.0778 31.002 40.521 31.4184 40.83 31.9825H41.102C41.4378 31.4049 41.9113 30.9852 42.5224 30.7233C43.1403 30.4613 43.7749 30.3304 44.4264 30.3304ZM54.5407 30.5419V41.8047H51.4681V30.5419H54.5407ZM53.0095 26.1295C53.4661 26.1295 53.859 26.237 54.1881 26.4519C54.5172 26.6601 54.6817 27.053 54.6817 27.6306C54.6817 28.2014 54.5172 28.5977 54.1881 28.8193C53.859 29.0342 53.4661 29.1417 53.0095 29.1417C52.5461 29.1417 52.1498 29.0342 51.8207 28.8193C51.4984 28.5977 51.3372 28.2014 51.3372 27.6306C51.3372 27.053 51.4984 26.6601 51.8207 26.4519C52.1498 26.237 52.5461 26.1295 53.0095 26.1295ZM64.1715 30.3304C65.3736 30.3304 66.3407 30.6595 67.0728 31.3176C67.8048 31.9691 68.1708 33.0168 68.1708 34.4607V41.8047H65.0983V35.2264C65.0983 34.4204 64.9505 33.8126 64.655 33.403C64.3662 32.9933 63.9095 32.7884 63.285 32.7884C62.3447 32.7884 61.7033 33.1075 61.3608 33.7455C61.0183 34.3835 60.847 35.3036 60.847 36.5058V41.8047H57.7745V30.5419H60.1217L60.5347 31.9825H60.706C60.9478 31.593 61.2466 31.2773 61.6026 31.0356C61.9653 30.7938 62.3649 30.6158 62.8014 30.5016C63.2447 30.3875 63.7013 30.3304 64.1715 30.3304ZM75.9782 30.3304C77.0192 30.3304 77.9158 30.5319 78.668 30.9348C79.4202 31.3311 80.0011 31.9086 80.4108 32.6676C80.8204 33.4265 81.0253 34.3533 81.0253 35.448V36.9389H73.7619C73.7955 37.8053 74.0541 38.487 74.5376 38.984C75.0279 39.4742 75.7062 39.7194 76.5726 39.7194C77.2912 39.7194 77.9494 39.6455 78.5471 39.4977C79.1448 39.35 79.7593 39.1284 80.3906 38.8329V41.2103C79.8332 41.4857 79.2489 41.6872 78.6377 41.8148C78.0333 41.9424 77.2979 42.0062 76.4315 42.0062C75.3032 42.0062 74.3026 41.798 73.4295 41.3816C72.5631 40.9652 71.8814 40.3305 71.3845 39.4776C70.8942 38.6247 70.6491 37.5501 70.6491 36.2539C70.6491 34.9376 70.8707 33.8429 71.3139 32.9698C71.7639 32.09 72.3885 31.4318 73.1877 30.9953C73.9869 30.552 74.9171 30.3304 75.9782 30.3304ZM75.9984 32.5164C75.4006 32.5164 74.9036 32.7079 74.5074 33.0907C74.1179 33.4735 73.8929 34.0746 73.8324 34.8939H78.1441C78.1374 34.4372 78.0535 34.0309 77.8923 33.675C77.7378 33.319 77.5027 33.0369 77.1871 32.8287C76.8782 32.6205 76.4819 32.5164 75.9984 32.5164ZM88.1678 30.3304C89.2087 30.3304 90.1053 30.5319 90.8575 30.9348C91.6097 31.3311 92.1907 31.9086 92.6003 32.6676C93.01 33.4265 93.2148 34.3533 93.2148 35.448V36.9389H85.9515C85.9851 37.8053 86.2436 38.487 86.7272 38.984C87.2175 39.4742 87.8958 39.7194 88.7621 39.7194C89.4807 39.7194 90.1389 39.6455 90.7366 39.4977C91.3344 39.35 91.9489 39.1284 92.5802 38.8329V41.2103C92.0228 41.4857 91.4385 41.6872 90.8273 41.8148C90.2229 41.9424 89.4875 42.0062 88.6211 42.0062C87.4928 42.0062 86.4921 41.798 85.619 41.3816C84.7527 40.9652 84.071 40.3305 83.574 39.4776C83.0837 38.6247 82.8386 37.5501 82.8386 36.2539C82.8386 34.9376 83.0602 33.8429 83.5035 32.9698C83.9535 32.09 84.5781 31.4318 85.3773 30.9953C86.1765 30.552 87.1066 30.3304 88.1678 30.3304ZM88.1879 32.5164C87.5902 32.5164 87.0932 32.7079 86.697 33.0907C86.3074 33.4735 86.0824 34.0746 86.022 34.8939H90.3337C90.327 34.4372 90.243 34.0309 90.0818 33.675C89.9274 33.319 89.6923 33.0369 89.3766 32.8287C89.0677 32.6205 88.6715 32.5164 88.1879 32.5164Z" fill="#0F1D40"/>
<path d="M11.9033 16.551C12.9576 15.8037 13.7584 14.7139 14.1872 13.4432C14.616 12.1724 14.65 10.788 14.2842 9.49497C13.9184 8.20193 13.1723 7.06892 12.1562 6.2636C11.1401 5.45827 9.90805 5.02344 8.64237 5.02344C7.3767 5.02344 6.14465 5.45827 5.12856 6.2636C4.11247 7.06892 3.36632 8.20193 3.00055 9.49497C2.63477 10.788 2.66879 12.1724 3.09759 13.4432C3.52638 14.7139 4.32716 15.8037 5.38142 16.551C3.58295 17.2568 2.03017 18.5334 0.931976 20.2092C0.846196 20.3335 0.795138 20.4811 0.784709 20.6351C0.77428 20.789 0.804905 20.943 0.873043 21.0792C0.940376 21.2144 1.04075 21.3277 1.16352 21.4071C1.28629 21.4864 1.42689 21.5289 1.57042 21.5299H15.7143C15.8579 21.5289 15.9985 21.4864 16.1212 21.4071C16.244 21.3277 16.3444 21.2144 16.4117 21.0792C16.4798 20.943 16.5105 20.789 16.5 20.6351C16.4896 20.4811 16.4386 20.3335 16.3528 20.2092C15.2546 18.5334 13.7018 17.2568 11.9033 16.551Z" fill="#2561ED"/>
<path d="M24.3695 20.2089C23.265 18.5352 21.7098 17.2594 19.9102 16.5508C20.9678 15.8062 21.7719 14.7173 22.203 13.4458C22.634 12.1744 22.6689 10.7885 22.3025 9.49416C21.9361 8.19985 21.188 7.06635 20.1694 6.26225C19.1508 5.45815 17.9162 5.02642 16.6493 5.03129C16.1085 5.03435 15.5704 5.11186 15.0482 5.26189C14.9256 5.3012 14.8135 5.37115 14.7213 5.46595C14.629 5.56074 14.5593 5.67764 14.5178 5.80694C14.4783 5.93519 14.4684 6.07172 14.4889 6.20494C14.5094 6.33816 14.5598 6.46412 14.6357 6.57211C15.524 7.84583 16.0344 9.37436 16.1009 10.9606C16.1674 12.5467 15.7871 14.1178 15.009 15.4711C14.9092 15.651 14.875 15.8637 14.9131 16.0687C14.9512 16.2737 15.0587 16.4566 15.2152 16.5822C15.5099 16.8268 15.7947 17.0783 16.0698 17.3369L16.1189 17.3893C17.1673 18.4246 18.0178 19.6669 18.6235 21.0474C18.6857 21.1917 18.7854 21.3139 18.9108 21.3993C19.0361 21.4848 19.1819 21.53 19.3307 21.5296H23.7212C23.8647 21.5286 24.0053 21.4862 24.1281 21.4068C24.2509 21.3275 24.3513 21.2142 24.4186 21.0789C24.4859 20.943 24.5169 20.79 24.5083 20.6365C24.4996 20.4831 24.4516 20.3352 24.3695 20.2089Z" fill="#2561ED"/>
</svg>
